<?xml version="1.0" encoding="UTF-8" standalone="no"?>
<svg
   width="16"
   height="16"
   viewBox="0 0 16 16"
   version="1.1"
   id="svg152"
   sodipodi:docname="cog.svg"
   inkscape:version="1.2 (dc2aedaf03, 2022-05-15)"
   xmlns:inkscape="http://www.inkscape.org/namespaces/inkscape"
   xmlns:sodipodi="http://sodipodi.sourceforge.net/DTD/sodipodi-0.dtd"
   xmlns="http://www.w3.org/2000/svg"
   xmlns:svg="http://www.w3.org/2000/svg">
  <defs
     id="defs156" />
  <sodipodi:namedview
     id="namedview154"
     pagecolor="#ffffff"
     bordercolor="#000000"
     borderopacity="0.25"
     inkscape:showpageshadow="2"
     inkscape:pageopacity="0.0"
     inkscape:pagecheckerboard="0"
     inkscape:deskcolor="#d1d1d1"
     showgrid="false"
     inkscape:zoom="47.291667"
     inkscape:cx="12"
     inkscape:cy="12"
     inkscape:window-width="2560"
     inkscape:window-height="1351"
     inkscape:window-x="-9"
     inkscape:window-y="-9"
     inkscape:window-maximized="1"
     inkscape:current-layer="svg152" />
  <path
     fill="#6e6e6e"
     d="M 8.0014724,10.333345 A 2.333345,2.333345 0 0 1 5.6681272,8 2.333345,2.333345 0 0 1 8.0014724,5.666655 2.333345,2.333345 0 0 1 10.334817,8 2.333345,2.333345 0 0 1 8.0014724,10.333345 M 12.95483,8.64667 C 12.9815,8.433336 13.0015,8.220001 13.0015,8 c 0,-0.220001 -0.02,-0.440002 -0.04667,-0.66667 l 1.406674,-1.086672 c 0.126667,-0.100001 0.16,-0.2800015 0.08,-0.4266689 l -1.33334,-2.3066782 c -0.08,-0.1466674 -0.260001,-0.2066677 -0.406669,-0.1466674 l -1.660008,0.66667 C 10.694819,3.7733122 10.334817,3.5466444 9.9148154,3.3799769 L 9.6681474,1.6133014 C 9.6414804,1.4533006 9.5014794,1.3333 9.3348124,1.3333 h -2.66668 c -0.166668,0 -0.306668,0.1200006 -0.333335,0.2800014 L 6.0881294,3.3799769 C 5.6681272,3.5466444 5.3081254,3.7733122 4.961457,4.0333135 l -1.6600083,-0.66667 c -0.1466674,-0.06 -0.3266683,0 -0.4066687,0.1466674 L 1.56144,5.8199891 C 1.474773,5.9666565 1.514773,6.146657 1.64144,6.246658 L 3.0481141,7.33333 C 3.0214473,7.559998 3.0014472,7.779999 3.0014472,8 c 0,0.220001 0.02,0.433336 0.046667,0.64667 L 1.6414404,9.753342 c -0.1266673,0.100001 -0.1666675,0.280002 -0.08,0.426669 l 1.33334,2.306678 c 0.08,0.146667 0.2600013,0.200001 0.4066687,0.146667 L 4.961457,11.96002 c 0.3466684,0.266668 0.7066702,0.493336 1.1266724,0.660003 l 0.246668,1.766676 c 0.02667,0.16 0.166667,0.280001 0.333335,0.280001 h 2.66668 c 0.166667,0 0.306668,-0.120001 0.333335,-0.280001 l 0.246668,-1.766676 C 10.334817,12.446689 10.694819,12.226688 11.041487,11.96002 l 1.660008,0.673337 c 0.146668,0.05333 0.326669,0 0.406669,-0.146668 l 1.33334,-2.306678 c 0.08,-0.146667 0.04667,-0.326668 -0.08,-0.426669 z"
     id="path150"
     style="stroke-width:0.66667" />
</svg>
