<?xml version="1.0" encoding="UTF-8" standalone="no"?>
<svg
   width="16"
   height="16"
   viewBox="0 0 16 16"
   version="1.1"
   id="svg345"
   sodipodi:docname="connection.svg"
   inkscape:version="1.2 (dc2aedaf03, 2022-05-15)"
   xmlns:inkscape="http://www.inkscape.org/namespaces/inkscape"
   xmlns:sodipodi="http://sodipodi.sourceforge.net/DTD/sodipodi-0.dtd"
   xmlns="http://www.w3.org/2000/svg"
   xmlns:svg="http://www.w3.org/2000/svg">
  <defs
     id="defs349" />
  <sodipodi:namedview
     id="namedview347"
     pagecolor="#ffffff"
     bordercolor="#000000"
     borderopacity="0.25"
     inkscape:showpageshadow="2"
     inkscape:pageopacity="0.0"
     inkscape:pagecheckerboard="0"
     inkscape:deskcolor="#d1d1d1"
     showgrid="false"
     inkscape:zoom="47.291667"
     inkscape:cx="12"
     inkscape:cy="12"
     inkscape:window-width="2560"
     inkscape:window-height="1351"
     inkscape:window-x="-9"
     inkscape:window-y="-9"
     inkscape:window-maximized="1"
     inkscape:current-layer="svg345" />
  <path
     fill="#6e6e6e"
     d="m 14.266698,5.0333187 c 0.533336,0.5333361 0.533336,1.4000076 0,1.8666766 L 12.400022,8.7666713 7.199996,3.5666448 9.066672,1.6999688 c 0.533336,-0.533336 1.400007,-0.533336 1.866676,0 l 1.200006,1.200006 2.00001,-2.00001005 0.933338,0.93333805 -2.00001,2.00001 1.200006,1.200006 M 10.400012,8.9000053 9.466674,7.9666673 7.599998,9.8333433 6.199991,8.4333363 8.066667,6.5666603 7.133329,5.6333218 5.266653,7.4999983 4.266648,6.5666603 2.399972,8.4333363 c -0.533336,0.533336 -0.533336,1.400007 0,1.8666747 l 1.200006,1.200007 -2.66668,2.666679 0.933338,0.933338 2.66668,-2.66668 1.200006,1.200006 c 0.533336,0.533336 1.400007,0.533336 1.866676,0 L 9.466674,11.766686 8.533336,10.833348 Z"
     id="path343"
     style="stroke-width:0.66667" />
</svg>
