<?xml version="1.0" encoding="UTF-8" standalone="no"?>
<svg
   width="16"
   height="16"
   viewBox="0 0 16 16"
   version="1.1"
   id="svg291"
   sodipodi:docname="content-paste.svg"
   inkscape:version="1.2 (dc2aedaf03, 2022-05-15)"
   xmlns:inkscape="http://www.inkscape.org/namespaces/inkscape"
   xmlns:sodipodi="http://sodipodi.sourceforge.net/DTD/sodipodi-0.dtd"
   xmlns="http://www.w3.org/2000/svg"
   xmlns:svg="http://www.w3.org/2000/svg">
  <defs
     id="defs295" />
  <sodipodi:namedview
     id="namedview293"
     pagecolor="#ffffff"
     bordercolor="#000000"
     borderopacity="0.25"
     inkscape:showpageshadow="2"
     inkscape:pageopacity="0.0"
     inkscape:pagecheckerboard="0"
     inkscape:deskcolor="#d1d1d1"
     showgrid="false"
     inkscape:zoom="47.291667"
     inkscape:cx="12"
     inkscape:cy="12"
     inkscape:window-width="2560"
     inkscape:window-height="1351"
     inkscape:window-x="-9"
     inkscape:window-y="-9"
     inkscape:window-maximized="1"
     inkscape:current-layer="svg291" />
  <path
     fill="#6e6e6e"
     d="M 12.66669,14.00003 H 3.33331 V 3.33331 h 1.33334 v 2.00001 h 6.6667 V 3.33331 h 1.33334 M 8,1.99997 A 0.66667,0.66667 0 0 1 8.66667,2.66664 0.66667,0.66667 0 0 1 8,3.33331 0.66667,0.66667 0 0 1 7.33333,2.66664 0.66667,0.66667 0 0 1 8,1.99997 m 4.66669,0 H 9.880009 C 9.600008,1.2266328 8.866671,0.66663 8,0.66663 c -0.866671,0 -1.600008,0.5600028 -1.880009,1.33334 H 3.33331 A 1.33334,1.33334 0 0 0 1.99997,3.33331 v 10.66672 a 1.33334,1.33334 0 0 0 1.33334,1.33334 h 9.33338 a 1.33334,1.33334 0 0 0 1.33334,-1.33334 V 3.33331 A 1.33334,1.33334 0 0 0 12.66669,1.99997 Z"
     id="path289"
     style="stroke-width:0.66667" />
</svg>
