<?xml version="1.0" encoding="UTF-8" standalone="no"?>
<svg
   width="16"
   height="16"
   viewBox="0 0 16 16"
   version="1.1"
   id="svg264"
   sodipodi:docname="content-cut.svg"
   inkscape:version="1.2 (dc2aedaf03, 2022-05-15)"
   xmlns:inkscape="http://www.inkscape.org/namespaces/inkscape"
   xmlns:sodipodi="http://sodipodi.sourceforge.net/DTD/sodipodi-0.dtd"
   xmlns="http://www.w3.org/2000/svg"
   xmlns:svg="http://www.w3.org/2000/svg">
  <defs
     id="defs268" />
  <sodipodi:namedview
     id="namedview266"
     pagecolor="#ffffff"
     bordercolor="#000000"
     borderopacity="0.25"
     inkscape:showpageshadow="2"
     inkscape:pageopacity="0.0"
     inkscape:pagecheckerboard="0"
     inkscape:deskcolor="#d1d1d1"
     showgrid="false"
     inkscape:zoom="47.291667"
     inkscape:cx="12"
     inkscape:cy="12"
     inkscape:window-width="2560"
     inkscape:window-height="1351"
     inkscape:window-x="-9"
     inkscape:window-y="-9"
     inkscape:window-maximized="1"
     inkscape:current-layer="svg264" />
  <path
     fill="#6e6e6e"
     d="M 12.66669,1.99997 8.66667,5.99999 10.00001,7.33333 14.6667,2.66664 V 1.99997 M 8,8.333335 A 0.333335,0.333335 0 0 1 7.666665,8 0.333335,0.333335 0 0 1 8,7.666665 0.333335,0.333335 0 0 1 8.333335,8 0.333335,0.333335 0 0 1 8,8.333335 M 3.99998,13.33336 A 1.33334,1.33334 0 0 1 2.66664,12.00002 c 0,-0.740004 0.600003,-1.33334 1.33334,-1.33334 a 1.33334,1.33334 0 0 1 1.33334,1.33334 c 0,0.740004 -0.600003,1.33334 -1.33334,1.33334 m 0,-8.00004 A 1.33334,1.33334 0 0 1 2.66664,3.99998 c 0,-0.7400037 0.600003,-1.33334 1.33334,-1.33334 a 1.33334,1.33334 0 0 1 1.33334,1.33334 c 0,0.7400037 -0.600003,1.33334 -1.33334,1.33334 M 6.426659,5.0933188 C 6.579993,4.7599838 6.66666,4.3933153 6.66666,3.99998 A 2.66668,2.66668 0 0 0 3.99998,1.3333 2.66668,2.66668 0 0 0 1.3333,3.99998 2.66668,2.66668 0 0 0 3.99998,6.66666 c 0.3933353,0 0.7600038,-0.08667 1.0933388,-0.240001 L 6.66666,8 5.0933188,9.573341 C 4.7599838,9.420007 4.3933153,9.33334 3.99998,9.33334 A 2.66668,2.66668 0 0 0 1.3333,12.00002 2.66668,2.66668 0 0 0 3.99998,14.6667 2.66668,2.66668 0 0 0 6.66666,12.00002 c 0,-0.393335 -0.08667,-0.760004 -0.240001,-1.093339 L 8,9.33334 l 4.66669,4.66669 h 2.00001 v -0.66667 z"
     id="path262"
     style="stroke-width:0.66667" />
</svg>
